<?xml version="1.0" encoding="UTF-8"?>
<svg width="300px" height="300px" viewBox="0 0 300 300" version="1.1" xmlns="http://www.w3.org/2000/svg" xmlns:xlink="http://www.w3.org/1999/xlink">
    <!-- Generator: Sketch 61 (89581) - https://sketch.com -->
    <title>Education Card</title>
    <desc>Created with Sketch.</desc>
    <g id="Education-Card" stroke="none" stroke-width="1" fill="none" fill-rule="evenodd">
        <rect fill="#650D89" x="0" y="0" width="300" height="300"></rect>
        <g id="Double-Book" transform="translate(118.000000, 114.000000)">
            <g id="Pink-Vector-Book">
                <polygon id="Rectangle" fill="#650D59" transform="translate(26.998767, 29.483587) rotate(14.000000) translate(-26.998767, -29.483587) " points="6.51515441 4.65725597 47.547891 4.60344222 47.4823786 54.3099171 6.44964202 54.3637309"></polygon>
                <polygon id="Path-5" fill="#C9C9C9" transform="translate(34.429457, 8.718166) rotate(14.000000) translate(-34.429457, -8.718166) " points="51.4138365 7.8080222 55.8366711 9.57744991 17.0561492 9.62830991 13.0222422 7.85837214"></polygon>
                <polygon id="Rectangle" fill="#920075" transform="translate(31.460305, 33.920206) rotate(14.000000) translate(-31.460305, -33.920206) " points="10.9766929 9.09387569 52.0094294 9.04006194 51.9439171 58.7465369 10.9111805 58.8003506"></polygon>
                <polygon id="Path-4" fill="#920075" transform="translate(9.552837, 26.921238) rotate(14.000000) translate(-9.552837, -26.921238) " points="6.9113003 0.740086797 12.2588621 4.17338802 12.1943744 53.1023894 6.8468126 49.6690882"></polygon>
            </g>
            <g id="Darker-Pink-Vector-Book" transform="translate(7.000000, 9.000000)">
                <path d="M7.01449672,5.15660152 L6.95030232,53.8630738 L46.9830363,53.8105716 L47.0472307,5.10409925 L7.01449672,5.15660152 Z" id="Rectangle" stroke="#FFFFFF" fill="#D40078" transform="translate(26.998767, 29.483587) rotate(14.000000) translate(-26.998767, -29.483587) "></path>
                <polygon id="Path-5" fill="#C9C9C9" transform="translate(34.429457, 8.718166) rotate(14.000000) translate(-34.429457, -8.718166) " points="51.4138365 7.8080222 55.8366711 9.57744991 17.0561492 9.62830991 13.0222422 7.85837214"></polygon>
                <path d="M11.4760352,9.59322124 L11.4118408,58.2996936 L51.4445748,58.2471913 L51.5087692,9.54071897 L11.4760352,9.59322124 Z" id="Rectangle" stroke="#FFFFFF" fill="#F6019D" transform="translate(31.460305, 33.920206) rotate(14.000000) translate(-31.460305, -33.920206) "></path>
                <polygon id="Path-4" stroke="#FFFFFF" stroke-width="0.75" fill="#F6019D" transform="translate(9.552837, 26.921238) rotate(14.000000) translate(-9.552837, -26.921238) " points="6.9113003 0.740086797 12.2588621 4.17338802 12.1943744 53.1023894 6.8468126 49.6690882"></polygon>
            </g>
        </g>
        <g id="Double-Book" transform="translate(215.000000, 218.000000)">
            <g id="Pink-Vector-Book">
                <polygon id="Rectangle" fill="#650D59" transform="translate(26.998767, 29.483587) rotate(14.000000) translate(-26.998767, -29.483587) " points="6.51515441 4.65725597 47.547891 4.60344222 47.4823786 54.3099171 6.44964202 54.3637309"></polygon>
                <polygon id="Path-5" fill="#C9C9C9" transform="translate(34.429457, 8.718166) rotate(14.000000) translate(-34.429457, -8.718166) " points="51.4138365 7.8080222 55.8366711 9.57744991 17.0561492 9.62830991 13.0222422 7.85837214"></polygon>
                <polygon id="Rectangle" fill="#920075" transform="translate(31.460305, 33.920206) rotate(14.000000) translate(-31.460305, -33.920206) " points="10.9766929 9.09387569 52.0094294 9.04006194 51.9439171 58.7465369 10.9111805 58.8003506"></polygon>
                <polygon id="Path-4" fill="#920075" transform="translate(9.552837, 26.921238) rotate(14.000000) translate(-9.552837, -26.921238) " points="6.9113003 0.740086797 12.2588621 4.17338802 12.1943744 53.1023894 6.8468126 49.6690882"></polygon>
            </g>
            <g id="Darker-Pink-Vector-Book" transform="translate(7.000000, 9.000000)">
                <path d="M7.01449672,5.15660152 L6.95030232,53.8630738 L46.9830363,53.8105716 L47.0472307,5.10409925 L7.01449672,5.15660152 Z" id="Rectangle" stroke="#FFFFFF" fill="#D40078" transform="translate(26.998767, 29.483587) rotate(14.000000) translate(-26.998767, -29.483587) "></path>
                <polygon id="Path-5" fill="#C9C9C9" transform="translate(34.429457, 8.718166) rotate(14.000000) translate(-34.429457, -8.718166) " points="51.4138365 7.8080222 55.8366711 9.57744991 17.0561492 9.62830991 13.0222422 7.85837214"></polygon>
                <path d="M11.4760352,9.59322124 L11.4118408,58.2996936 L51.4445748,58.2471913 L51.5087692,9.54071897 L11.4760352,9.59322124 Z" id="Rectangle" stroke="#FFFFFF" fill="#F6019D" transform="translate(31.460305, 33.920206) rotate(14.000000) translate(-31.460305, -33.920206) "></path>
                <polygon id="Path-4" stroke="#FFFFFF" stroke-width="0.75" fill="#F6019D" transform="translate(9.552837, 26.921238) rotate(14.000000) translate(-9.552837, -26.921238) " points="6.9113003 0.740086797 12.2588621 4.17338802 12.1943744 53.1023894 6.8468126 49.6690882"></polygon>
            </g>
        </g>
        <g id="Double-Book" transform="translate(118.000000, 218.000000)">
            <g id="Pink-Vector-Book">
                <polygon id="Rectangle" fill="#650D59" transform="translate(26.998767, 29.483587) rotate(14.000000) translate(-26.998767, -29.483587) " points="6.51515441 4.65725597 47.547891 4.60344222 47.4823786 54.3099171 6.44964202 54.3637309"></polygon>
                <polygon id="Path-5" fill="#C9C9C9" transform="translate(34.429457, 8.718166) rotate(14.000000) translate(-34.429457, -8.718166) " points="51.4138365 7.8080222 55.8366711 9.57744991 17.0561492 9.62830991 13.0222422 7.85837214"></polygon>
                <polygon id="Rectangle" fill="#920075" transform="translate(31.460305, 33.920206) rotate(14.000000) translate(-31.460305, -33.920206) " points="10.9766929 9.09387569 52.0094294 9.04006194 51.9439171 58.7465369 10.9111805 58.8003506"></polygon>
                <polygon id="Path-4" fill="#920075" transform="translate(9.552837, 26.921238) rotate(14.000000) translate(-9.552837, -26.921238) " points="6.9113003 0.740086797 12.2588621 4.17338802 12.1943744 53.1023894 6.8468126 49.6690882"></polygon>
            </g>
            <g id="Darker-Pink-Vector-Book" transform="translate(7.000000, 9.000000)">
                <path d="M7.01449672,5.15660152 L6.95030232,53.8630738 L46.9830363,53.8105716 L47.0472307,5.10409925 L7.01449672,5.15660152 Z" id="Rectangle" stroke="#FFFFFF" fill="#D40078" transform="translate(26.998767, 29.483587) rotate(14.000000) translate(-26.998767, -29.483587) "></path>
                <polygon id="Path-5" fill="#C9C9C9" transform="translate(34.429457, 8.718166) rotate(14.000000) translate(-34.429457, -8.718166) " points="51.4138365 7.8080222 55.8366711 9.57744991 17.0561492 9.62830991 13.0222422 7.85837214"></polygon>
                <path d="M11.4760352,9.59322124 L11.4118408,58.2996936 L51.4445748,58.2471913 L51.5087692,9.54071897 L11.4760352,9.59322124 Z" id="Rectangle" stroke="#FFFFFF" fill="#F6019D" transform="translate(31.460305, 33.920206) rotate(14.000000) translate(-31.460305, -33.920206) "></path>
                <polygon id="Path-4" stroke="#FFFFFF" stroke-width="0.75" fill="#F6019D" transform="translate(9.552837, 26.921238) rotate(14.000000) translate(-9.552837, -26.921238) " points="6.9113003 0.740086797 12.2588621 4.17338802 12.1943744 53.1023894 6.8468126 49.6690882"></polygon>
            </g>
        </g>
        <g id="Double-Book" transform="translate(21.000000, 218.000000)">
            <g id="Pink-Vector-Book">
                <polygon id="Rectangle" fill="#650D59" transform="translate(26.998767, 29.483587) rotate(14.000000) translate(-26.998767, -29.483587) " points="6.51515441 4.65725597 47.547891 4.60344222 47.4823786 54.3099171 6.44964202 54.3637309"></polygon>
                <polygon id="Path-5" fill="#C9C9C9" transform="translate(34.429457, 8.718166) rotate(14.000000) translate(-34.429457, -8.718166) " points="51.4138365 7.8080222 55.8366711 9.57744991 17.0561492 9.62830991 13.0222422 7.85837214"></polygon>
                <polygon id="Rectangle" fill="#920075" transform="translate(31.460305, 33.920206) rotate(14.000000) translate(-31.460305, -33.920206) " points="10.9766929 9.09387569 52.0094294 9.04006194 51.9439171 58.7465369 10.9111805 58.8003506"></polygon>
                <polygon id="Path-4" fill="#920075" transform="translate(9.552837, 26.921238) rotate(14.000000) translate(-9.552837, -26.921238) " points="6.9113003 0.740086797 12.2588621 4.17338802 12.1943744 53.1023894 6.8468126 49.6690882"></polygon>
            </g>
            <g id="Darker-Pink-Vector-Book" transform="translate(7.000000, 9.000000)">
                <path d="M7.01449672,5.15660152 L6.95030232,53.8630738 L46.9830363,53.8105716 L47.0472307,5.10409925 L7.01449672,5.15660152 Z" id="Rectangle" stroke="#FFFFFF" fill="#D40078" transform="translate(26.998767, 29.483587) rotate(14.000000) translate(-26.998767, -29.483587) "></path>
                <polygon id="Path-5" fill="#C9C9C9" transform="translate(34.429457, 8.718166) rotate(14.000000) translate(-34.429457, -8.718166) " points="51.4138365 7.8080222 55.8366711 9.57744991 17.0561492 9.62830991 13.0222422 7.85837214"></polygon>
                <path d="M11.4760352,9.59322124 L11.4118408,58.2996936 L51.4445748,58.2471913 L51.5087692,9.54071897 L11.4760352,9.59322124 Z" id="Rectangle" stroke="#FFFFFF" fill="#F6019D" transform="translate(31.460305, 33.920206) rotate(14.000000) translate(-31.460305, -33.920206) "></path>
                <polygon id="Path-4" stroke="#FFFFFF" stroke-width="0.75" fill="#F6019D" transform="translate(9.552837, 26.921238) rotate(14.000000) translate(-9.552837, -26.921238) " points="6.9113003 0.740086797 12.2588621 4.17338802 12.1943744 53.1023894 6.8468126 49.6690882"></polygon>
            </g>
        </g>
        <g id="Double-Book" transform="translate(215.000000, 10.000000)">
            <g id="Pink-Vector-Book">
                <polygon id="Rectangle" fill="#650D59" transform="translate(26.998767, 29.483587) rotate(14.000000) translate(-26.998767, -29.483587) " points="6.51515441 4.65725597 47.547891 4.60344222 47.4823786 54.3099171 6.44964202 54.3637309"></polygon>
                <polygon id="Path-5" fill="#C9C9C9" transform="translate(34.429457, 8.718166) rotate(14.000000) translate(-34.429457, -8.718166) " points="51.4138365 7.8080222 55.8366711 9.57744991 17.0561492 9.62830991 13.0222422 7.85837214"></polygon>
                <polygon id="Rectangle" fill="#920075" transform="translate(31.460305, 33.920206) rotate(14.000000) translate(-31.460305, -33.920206) " points="10.9766929 9.09387569 52.0094294 9.04006194 51.9439171 58.7465369 10.9111805 58.8003506"></polygon>
                <polygon id="Path-4" fill="#920075" transform="translate(9.552837, 26.921238) rotate(14.000000) translate(-9.552837, -26.921238) " points="6.9113003 0.740086797 12.2588621 4.17338802 12.1943744 53.1023894 6.8468126 49.6690882"></polygon>
            </g>
            <g id="Darker-Pink-Vector-Book" transform="translate(7.000000, 9.000000)">
                <path d="M7.01449672,5.15660152 L6.95030232,53.8630738 L46.9830363,53.8105716 L47.0472307,5.10409925 L7.01449672,5.15660152 Z" id="Rectangle" stroke="#FFFFFF" fill="#D40078" transform="translate(26.998767, 29.483587) rotate(14.000000) translate(-26.998767, -29.483587) "></path>
                <polygon id="Path-5" fill="#C9C9C9" transform="translate(34.429457, 8.718166) rotate(14.000000) translate(-34.429457, -8.718166) " points="51.4138365 7.8080222 55.8366711 9.57744991 17.0561492 9.62830991 13.0222422 7.85837214"></polygon>
                <path d="M11.4760352,9.59322124 L11.4118408,58.2996936 L51.4445748,58.2471913 L51.5087692,9.54071897 L11.4760352,9.59322124 Z" id="Rectangle" stroke="#FFFFFF" fill="#F6019D" transform="translate(31.460305, 33.920206) rotate(14.000000) translate(-31.460305, -33.920206) "></path>
                <polygon id="Path-4" stroke="#FFFFFF" stroke-width="0.75" fill="#F6019D" transform="translate(9.552837, 26.921238) rotate(14.000000) translate(-9.552837, -26.921238) " points="6.9113003 0.740086797 12.2588621 4.17338802 12.1943744 53.1023894 6.8468126 49.6690882"></polygon>
            </g>
        </g>
        <g id="Double-Book" transform="translate(118.000000, 10.000000)">
            <g id="Pink-Vector-Book">
                <polygon id="Rectangle" fill="#650D59" transform="translate(26.998767, 29.483587) rotate(14.000000) translate(-26.998767, -29.483587) " points="6.51515441 4.65725597 47.547891 4.60344222 47.4823786 54.3099171 6.44964202 54.3637309"></polygon>
                <polygon id="Path-5" fill="#C9C9C9" transform="translate(34.429457, 8.718166) rotate(14.000000) translate(-34.429457, -8.718166) " points="51.4138365 7.8080222 55.8366711 9.57744991 17.0561492 9.62830991 13.0222422 7.85837214"></polygon>
                <polygon id="Rectangle" fill="#920075" transform="translate(31.460305, 33.920206) rotate(14.000000) translate(-31.460305, -33.920206) " points="10.9766929 9.09387569 52.0094294 9.04006194 51.9439171 58.7465369 10.9111805 58.8003506"></polygon>
                <polygon id="Path-4" fill="#920075" transform="translate(9.552837, 26.921238) rotate(14.000000) translate(-9.552837, -26.921238) " points="6.9113003 0.740086797 12.2588621 4.17338802 12.1943744 53.1023894 6.8468126 49.6690882"></polygon>
            </g>
            <g id="Darker-Pink-Vector-Book" transform="translate(7.000000, 9.000000)">
                <path d="M7.01449672,5.15660152 L6.95030232,53.8630738 L46.9830363,53.8105716 L47.0472307,5.10409925 L7.01449672,5.15660152 Z" id="Rectangle" stroke="#FFFFFF" fill="#D40078" transform="translate(26.998767, 29.483587) rotate(14.000000) translate(-26.998767, -29.483587) "></path>
                <polygon id="Path-5" fill="#C9C9C9" transform="translate(34.429457, 8.718166) rotate(14.000000) translate(-34.429457, -8.718166) " points="51.4138365 7.8080222 55.8366711 9.57744991 17.0561492 9.62830991 13.0222422 7.85837214"></polygon>
                <path d="M11.4760352,9.59322124 L11.4118408,58.2996936 L51.4445748,58.2471913 L51.5087692,9.54071897 L11.4760352,9.59322124 Z" id="Rectangle" stroke="#FFFFFF" fill="#F6019D" transform="translate(31.460305, 33.920206) rotate(14.000000) translate(-31.460305, -33.920206) "></path>
                <polygon id="Path-4" stroke="#FFFFFF" stroke-width="0.75" fill="#F6019D" transform="translate(9.552837, 26.921238) rotate(14.000000) translate(-9.552837, -26.921238) " points="6.9113003 0.740086797 12.2588621 4.17338802 12.1943744 53.1023894 6.8468126 49.6690882"></polygon>
            </g>
        </g>
        <g id="Double-Book" transform="translate(21.000000, 10.000000)">
            <g id="Pink-Vector-Book">
                <polygon id="Rectangle" fill="#650D59" transform="translate(26.998767, 29.483587) rotate(14.000000) translate(-26.998767, -29.483587) " points="6.51515441 4.65725597 47.547891 4.60344222 47.4823786 54.3099171 6.44964202 54.3637309"></polygon>
                <polygon id="Path-5" fill="#C9C9C9" transform="translate(34.429457, 8.718166) rotate(14.000000) translate(-34.429457, -8.718166) " points="51.4138365 7.8080222 55.8366711 9.57744991 17.0561492 9.62830991 13.0222422 7.85837214"></polygon>
                <polygon id="Rectangle" fill="#920075" transform="translate(31.460305, 33.920206) rotate(14.000000) translate(-31.460305, -33.920206) " points="10.9766929 9.09387569 52.0094294 9.04006194 51.9439171 58.7465369 10.9111805 58.8003506"></polygon>
                <polygon id="Path-4" fill="#920075" transform="translate(9.552837, 26.921238) rotate(14.000000) translate(-9.552837, -26.921238) " points="6.9113003 0.740086797 12.2588621 4.17338802 12.1943744 53.1023894 6.8468126 49.6690882"></polygon>
            </g>
            <g id="Darker-Pink-Vector-Book" transform="translate(7.000000, 9.000000)">
                <path d="M7.01449672,5.15660152 L6.95030232,53.8630738 L46.9830363,53.8105716 L47.0472307,5.10409925 L7.01449672,5.15660152 Z" id="Rectangle" stroke="#FFFFFF" fill="#D40078" transform="translate(26.998767, 29.483587) rotate(14.000000) translate(-26.998767, -29.483587) "></path>
                <polygon id="Path-5" fill="#C9C9C9" transform="translate(34.429457, 8.718166) rotate(14.000000) translate(-34.429457, -8.718166) " points="51.4138365 7.8080222 55.8366711 9.57744991 17.0561492 9.62830991 13.0222422 7.85837214"></polygon>
                <path d="M11.4760352,9.59322124 L11.4118408,58.2996936 L51.4445748,58.2471913 L51.5087692,9.54071897 L11.4760352,9.59322124 Z" id="Rectangle" stroke="#FFFFFF" fill="#F6019D" transform="translate(31.460305, 33.920206) rotate(14.000000) translate(-31.460305, -33.920206) "></path>
                <polygon id="Path-4" stroke="#FFFFFF" stroke-width="0.75" fill="#F6019D" transform="translate(9.552837, 26.921238) rotate(14.000000) translate(-9.552837, -26.921238) " points="6.9113003 0.740086797 12.2588621 4.17338802 12.1943744 53.1023894 6.8468126 49.6690882"></polygon>
            </g>
        </g>
        <g id="Double-Book" transform="translate(215.000000, 114.000000)">
            <g id="Pink-Vector-Book">
                <polygon id="Rectangle" fill="#650D59" transform="translate(26.998767, 29.483587) rotate(14.000000) translate(-26.998767, -29.483587) " points="6.51515441 4.65725597 47.547891 4.60344222 47.4823786 54.3099171 6.44964202 54.3637309"></polygon>
                <polygon id="Path-5" fill="#C9C9C9" transform="translate(34.429457, 8.718166) rotate(14.000000) translate(-34.429457, -8.718166) " points="51.4138365 7.8080222 55.8366711 9.57744991 17.0561492 9.62830991 13.0222422 7.85837214"></polygon>
                <polygon id="Rectangle" fill="#920075" transform="translate(31.460305, 33.920206) rotate(14.000000) translate(-31.460305, -33.920206) " points="10.9766929 9.09387569 52.0094294 9.04006194 51.9439171 58.7465369 10.9111805 58.8003506"></polygon>
                <polygon id="Path-4" fill="#920075" transform="translate(9.552837, 26.921238) rotate(14.000000) translate(-9.552837, -26.921238) " points="6.9113003 0.740086797 12.2588621 4.17338802 12.1943744 53.1023894 6.8468126 49.6690882"></polygon>
            </g>
            <g id="Darker-Pink-Vector-Book" transform="translate(7.000000, 9.000000)">
                <path d="M7.01449672,5.15660152 L6.95030232,53.8630738 L46.9830363,53.8105716 L47.0472307,5.10409925 L7.01449672,5.15660152 Z" id="Rectangle" stroke="#FFFFFF" fill="#D40078" transform="translate(26.998767, 29.483587) rotate(14.000000) translate(-26.998767, -29.483587) "></path>
                <polygon id="Path-5" fill="#C9C9C9" transform="translate(34.429457, 8.718166) rotate(14.000000) translate(-34.429457, -8.718166) " points="51.4138365 7.8080222 55.8366711 9.57744991 17.0561492 9.62830991 13.0222422 7.85837214"></polygon>
                <path d="M11.4760352,9.59322124 L11.4118408,58.2996936 L51.4445748,58.2471913 L51.5087692,9.54071897 L11.4760352,9.59322124 Z" id="Rectangle" stroke="#FFFFFF" fill="#F6019D" transform="translate(31.460305, 33.920206) rotate(14.000000) translate(-31.460305, -33.920206) "></path>
                <polygon id="Path-4" stroke="#FFFFFF" stroke-width="0.75" fill="#F6019D" transform="translate(9.552837, 26.921238) rotate(14.000000) translate(-9.552837, -26.921238) " points="6.9113003 0.740086797 12.2588621 4.17338802 12.1943744 53.1023894 6.8468126 49.6690882"></polygon>
            </g>
        </g>
        <g id="Double-Book" transform="translate(21.000000, 114.000000)">
            <g id="Pink-Vector-Book">
                <polygon id="Rectangle" fill="#650D59" transform="translate(26.998767, 29.483587) rotate(14.000000) translate(-26.998767, -29.483587) " points="6.51515441 4.65725597 47.547891 4.60344222 47.4823786 54.3099171 6.44964202 54.3637309"></polygon>
                <polygon id="Path-5" fill="#C9C9C9" transform="translate(34.429457, 8.718166) rotate(14.000000) translate(-34.429457, -8.718166) " points="51.4138365 7.8080222 55.8366711 9.57744991 17.0561492 9.62830991 13.0222422 7.85837214"></polygon>
                <polygon id="Rectangle" fill="#920075" transform="translate(31.460305, 33.920206) rotate(14.000000) translate(-31.460305, -33.920206) " points="10.9766929 9.09387569 52.0094294 9.04006194 51.9439171 58.7465369 10.9111805 58.8003506"></polygon>
                <polygon id="Path-4" fill="#920075" transform="translate(9.552837, 26.921238) rotate(14.000000) translate(-9.552837, -26.921238) " points="6.9113003 0.740086797 12.2588621 4.17338802 12.1943744 53.1023894 6.8468126 49.6690882"></polygon>
            </g>
            <g id="Darker-Pink-Vector-Book" transform="translate(7.000000, 9.000000)">
                <path d="M7.01449672,5.15660152 L6.95030232,53.8630738 L46.9830363,53.8105716 L47.0472307,5.10409925 L7.01449672,5.15660152 Z" id="Rectangle" stroke="#FFFFFF" fill="#D40078" transform="translate(26.998767, 29.483587) rotate(14.000000) translate(-26.998767, -29.483587) "></path>
                <polygon id="Path-5" fill="#C9C9C9" transform="translate(34.429457, 8.718166) rotate(14.000000) translate(-34.429457, -8.718166) " points="51.4138365 7.8080222 55.8366711 9.57744991 17.0561492 9.62830991 13.0222422 7.85837214"></polygon>
                <path d="M11.4760352,9.59322124 L11.4118408,58.2996936 L51.4445748,58.2471913 L51.5087692,9.54071897 L11.4760352,9.59322124 Z" id="Rectangle" stroke="#FFFFFF" fill="#F6019D" transform="translate(31.460305, 33.920206) rotate(14.000000) translate(-31.460305, -33.920206) "></path>
                <polygon id="Path-4" stroke="#FFFFFF" stroke-width="0.75" fill="#F6019D" transform="translate(9.552837, 26.921238) rotate(14.000000) translate(-9.552837, -26.921238) " points="6.9113003 0.740086797 12.2588621 4.17338802 12.1943744 53.1023894 6.8468126 49.6690882"></polygon>
            </g>
        </g>
    </g>
</svg>